<svg width="750" height="690" viewBox="0 0 750 690" fill="none" xmlns="http://www.w3.org/2000/svg"><g id="svg868af1e474ddcef8d378cb71f6dced79d38ec122__svg868af1e474ddcef8d378cb71f6dced79d38ec122__fast"><g id="svg868af1e474ddcef8d378cb71f6dced79d38ec122__svg868af1e474ddcef8d378cb71f6dced79d38ec122__Vector" fill-rule="evenodd" clip-rule="evenodd" fill="#09748E"><path d="M659.472 221.123v127.034c0 141.992-63.028 226.189-115.897 271.822-56.685 48.933-113.497 64.43-119.81 66.03l-15.655 3.99-63.121-284.11 63.121-271.575 251.362 86.809z"/><path d="M408.11 134.314v555.685l-15.684-3.989c-6.28-1.604-63.125-17.096-119.777-66.03-52.902-45.637-115.93-129.83-115.93-271.822V221.125l251.391-86.811z"/></g><g id="svg868af1e474ddcef8d378cb71f6dced79d38ec122__svg868af1e474ddcef8d378cb71f6dced79d38ec122__Vector_2" fill-rule="evenodd" clip-rule="evenodd" fill="#0B879B"><path d="M408.111 162.473L358.38 412.757l49.72 250.284 4.744-1.212c2.259-.57 55.933-14.577 109.962-61.214 49.65-42.858 108.835-122.421 108.835-258.086V239.668l-223.53-77.195z"/><path d="M184.548 239.668v102.861c0 135.683 59.197 215.231 108.879 258.097 53.871 46.522 107.711 60.64 109.944 61.21l4.729 1.201.011-500.564-223.563 77.195z"/></g><path id="svg868af1e474ddcef8d378cb71f6dced79d38ec122__svg868af1e474ddcef8d378cb71f6dced79d38ec122__Vector_3" d="M602.929 260.182V340.5c0 124.977-54.398 197.587-99.474 236.496-41.074 35.456-82.252 50.141-94.306 53.927-12.088-3.805-53.366-18.553-94.288-53.913C269.752 538.105 216 465.685 216 340.693v-80.492L409.149 195l193.78 65.182z" fill="#F8FBFC"/><path id="svg868af1e474ddcef8d378cb71f6dced79d38ec122__svg868af1e474ddcef8d378cb71f6dced79d38ec122__Fill_33" fill-rule="evenodd" clip-rule="evenodd" d="M272.99 593.664a9.372 9.372 0 0 1-4.729-1.282 9.358 9.358 0 0 1-3.988-11.536l104.566-263.658H261.406a9.393 9.393 0 0 1-7.989-4.464 9.349 9.349 0 0 1-.375-9.142L404.431 5.135A9.38 9.38 0 0 1 412.799 0h161.303a9.378 9.378 0 0 1 8.216 4.85 9.348 9.348 0 0 1-.29 9.524L462.085 203.836h112.017c3.62 0 6.91 2.078 8.468 5.335a9.38 9.38 0 0 1-1.183 9.939L280.282 590.196a9.389 9.389 0 0 1-7.292 3.468" fill="#F4D029"/><path d="M729.373 540.038h6.48c7.782 0 14.15 6.36 14.15 14.129 0 7.776-6.368 14.137-14.15 14.137h-6.48c-7.781 0-14.146-6.361-14.146-14.137 0-7.769 6.365-14.129 14.146-14.129zm-400.851 80.118H130.295c-7.781 0-14.15-6.361-14.15-14.129 0-7.776 6.369-14.133 14.15-14.133h198.227c7.782 0 14.15 6.357 14.15 14.133 0 7.768-6.368 14.129-14.15 14.129zm30.553 57.015h-68.64c-7.782 0-14.15-6.36-14.15-14.132 0-7.773 6.368-14.133 14.15-14.133h68.64c7.781 0 14.15 6.36 14.15 14.133 0 7.772-6.369 14.132-14.15 14.132zm-126.863-439.67H100.099c-7.782 0-14.15-6.357-14.15-14.129 0-7.772 6.368-14.133 14.15-14.133h132.113c7.781 0 14.15 6.361 14.15 14.133 0 7.772-6.369 14.129-14.15 14.129zm62.634 245.098H96.619c-7.782 0-14.15-6.361-14.15-14.129 0-7.773 6.368-14.133 14.15-14.133h198.227c7.781 0 14.15 6.36 14.15 14.133 0 7.768-6.369 14.129-14.15 14.129zm276.052 141.135h89.176c7.782 0 14.151 6.361 14.151 14.133 0 7.772-6.369 14.133-14.151 14.133h-89.176c-7.782 0-14.15-6.361-14.15-14.133 0-7.772 6.368-14.133 14.15-14.133zm-5.254-482.675h132.113c7.782 0 14.15 6.361 14.15 14.13 0 7.775-6.368 14.132-14.15 14.132H565.644c-7.781 0-14.15-6.357-14.15-14.132 0-7.769 6.369-14.13 14.15-14.13zm-408.92 155.064H24.612c-7.782 0-14.15-6.361-14.15-14.13 0-7.775 6.368-14.132 14.15-14.132h132.112c7.782 0 14.151 6.357 14.151 14.132 0 7.769-6.369 14.13-14.151 14.13z" id="svg868af1e474ddcef8d378cb71f6dced79d38ec122__svg868af1e474ddcef8d378cb71f6dced79d38ec122__Vector_4" fill-rule="evenodd" clip-rule="evenodd" fill="#09748E"/><path d="M645.849 540.038h27.247c7.781 0 14.15 6.36 14.15 14.129 0 7.776-6.369 14.137-14.15 14.137h-27.247c-7.782 0-14.146-6.361-14.146-14.137 0-7.769 6.364-14.129 14.146-14.129zm38.283-344.93h27.247c7.781 0 14.15 6.361 14.15 14.129 0 7.772-6.369 14.133-14.15 14.133h-27.247c-7.782 0-14.147-6.361-14.147-14.133 0-7.768 6.365-14.129 14.147-14.129zM135.257 361.166H46.08c-7.782 0-14.15-6.361-14.15-14.129 0-7.772 6.368-14.133 14.15-14.133h89.177c7.781 0 14.15 6.361 14.15 14.133 0 7.768-6.369 14.129-14.15 14.129zM56.971 482.599H29.726c-7.782 0-14.15-6.361-14.15-14.129 0-7.773 6.368-14.133 14.15-14.133H56.97c7.782 0 14.147 6.36 14.147 14.133 0 7.768-6.365 14.129-14.146 14.129zm40.932-60.717H70.656c-7.781 0-14.15-6.36-14.15-14.129 0-7.772 6.369-14.133 14.15-14.133h27.247c7.782 0 14.146 6.361 14.146 14.133 0 7.769-6.364 14.129-14.146 14.129zm-77.276 0h-6.48c-7.782 0-14.146-6.36-14.146-14.129 0-7.772 6.364-14.133 14.146-14.133h6.48c7.781 0 14.146 6.361 14.146 14.133 0 7.769-6.365 14.129-14.146 14.129zM163.69 554.168H31.573c-7.781 0-14.146-6.357-14.146-14.129 0-7.772 6.365-14.133 14.146-14.133H163.69c7.781 0 14.146 6.361 14.146 14.133 0 7.772-6.365 14.129-14.146 14.129zm-78.946 65.988h-6.48c-7.781 0-14.15-6.361-14.15-14.129 0-7.776 6.369-14.133 14.15-14.133h6.48c7.782 0 14.146 6.357 14.146 14.133 0 7.768-6.364 14.129-14.146 14.129zm165.499 57.015h-27.247c-7.781 0-14.15-6.36-14.15-14.132 0-7.773 6.369-14.133 14.15-14.133h27.247c7.782 0 14.146 6.36 14.146 14.133 0 7.772-6.364 14.132-14.146 14.132z" id="svg868af1e474ddcef8d378cb71f6dced79d38ec122__svg868af1e474ddcef8d378cb71f6dced79d38ec122__Vector_5" fill-rule="evenodd" clip-rule="evenodd" fill="#81B734"/></g></svg>